<?xml version="1.0" encoding="UTF-8" standalone="no"?>
<svg
   version="1.1"
   id="svg140"
   sodipodi:docname="icon.svg"
   inkscape:version="1.2.1 (9c6d41e410, 2022-07-14)"
   width="128"
   height="128"
   xmlns:inkscape="http://www.inkscape.org/namespaces/inkscape"
   xmlns:sodipodi="http://sodipodi.sourceforge.net/DTD/sodipodi-0.dtd"
   xmlns="http://www.w3.org/2000/svg"
   xmlns:svg="http://www.w3.org/2000/svg">
  <sodipodi:namedview
     id="namedview142"
     pagecolor="#ffffff"
     bordercolor="#000000"
     borderopacity="0.25"
     inkscape:showpageshadow="2"
     inkscape:pageopacity="0.0"
     inkscape:pagecheckerboard="0"
     inkscape:deskcolor="#d1d1d1"
     showgrid="false"
     inkscape:zoom="0.50416667"
     inkscape:cx="-793.38842"
     inkscape:cy="-146.77686"
     inkscape:window-width="3840"
     inkscape:window-height="1537"
     inkscape:window-x="-8"
     inkscape:window-y="-8"
     inkscape:window-maximized="1"
     inkscape:current-layer="svg140"
     showborder="false" />
  <defs
     id="defs2" />
  <g
     id="g698"
     transform="translate(-474,-130.65)">
    <path
       stroke="none"
       fill="#d23007"
       d="m 513.1,253.8 q -11.15,-4.7 -20.35,-13.95 l -3.2,-3.4 Q 474,218.8 474,194.65 q 0,-26.55 18.75,-45.3 18.75,-18.7 45.25,-18.7 26.55,0 45.25,18.7 18.75,18.75 18.75,45.3 0,24.15 -15.55,41.8 l -3.2,3.4 q -9.2,9.25 -20.3,13.95 -2,-4.95 -6.05,-9 -7.8,-7.8 -18.9,-7.8 -11.1,0 -18.95,7.8 -4.05,4.05 -5.95,9"
       id="path14" />
    <path
       stroke="none"
       fill="#ffcc00"
       d="m 513.1,253.8 q 1.9,-4.95 5.95,-9 7.85,-7.8 18.95,-7.8 11.1,0 18.9,7.8 4.05,4.05 6.05,9 -11.5,4.85 -24.95,4.85 -13.45,0 -24.9,-4.85"
       id="path16" />
    <path
       stroke="none"
       fill="#bb2905"
       d="m 552.45,148.7 q 3.9,6.75 4.65,12.65 0.9,5.85 -1.85,7.4 -2.75,1.6 -7.45,-2.05 -4.6,-3.65 -8.5,-10.4 l -0.9,-1.55 q -1.6,-3.2 -1.2,-6.5 0.4,-3.65 3.15,-5.25 2.75,-1.55 6.15,-0.1 3,1.3 5,4.3 l 0.95,1.5"
       id="path18" />
    <path
       stroke="none"
       fill="#bb2905"
       d="m 532.75,156.4 q -2.55,4.5 -5.7,6.9 -3.05,2.45 -4.85,1.35 -1.8,-1 -1.25,-4.9 0.55,-3.9 3.1,-8.35 l 0.6,-1.05 q 1.35,-2 3.35,-2.85 2.25,-1 4.05,0.05 1.8,1.1 2.1,3.55 0.25,2.1 -0.8,4.25 l -0.6,1.05"
       id="path20" />
    <path
       stroke="none"
       fill="#ffffff"
       d="m 528.1,198.15 -0.1,0.6 q -3.55,13.1 -11.3,20.95 -7.7,7.85 -15.1,5.8 -7.45,-2 -10.3,-12.6 -2.8,-10.7 0.75,-23.8 l 0.1,-0.55 q 2.1,-7.15 8.6,-10.85 6.65,-3.9 14.15,-1.95 7.4,2.05 11.3,8.7 3.7,6.55 1.9,13.7 m 56.05,-9.05 q 3.55,13.1 0.75,23.8 -2.8,10.6 -10.25,12.6 -7.45,2.05 -15.15,-5.8 -7.7,-7.85 -11.3,-20.95 l -0.05,-0.6 q -1.8,-7.15 1.85,-13.7 3.9,-6.65 11.35,-8.7 7.45,-1.95 14.1,1.95 6.5,3.7 8.6,10.85 l 0.1,0.55"
       id="path22" />
    <path
       stroke="none"
       fill="#333333"
       d="m 521,195.35 v 0.15 0.45 q -0.25,2.3 -2.35,3.95 -2.35,1.85 -5.65,1.85 -3.3,0 -5.65,-1.85 -2.1,-1.65 -2.3,-3.95 L 505,195.5 v -0.15 -0.1 q 0.05,-4.5 2.35,-7.65 2.35,-3.25 5.65,-3.25 3.3,0 5.65,3.25 2.3,3.15 2.35,7.65 v 0.1 m 50.4,0 v 0.15 0.45 q -0.2,2.3 -2.35,3.95 -2.35,1.85 -5.65,1.85 -3.3,0 -5.65,-1.85 -2.1,-1.65 -2.3,-3.95 l -0.05,-0.45 v -0.15 -0.1 q 0.05,-4.5 2.35,-7.65 2.35,-3.25 5.65,-3.25 3.3,0 5.65,3.25 2.35,3.15 2.35,7.65 v 0.1"
       id="path24" />
    <path
       stroke="none"
       fill="#5d9cf3"
       d="m 520.15,223.45 -0.1,-0.85 -0.1,-1.95 v -9.85 q 0,-2.35 0.55,-4.5 l 0.25,-0.85 0.05,-0.15 q 1.25,-4 4.4,-7.15 5.35,-5.3 12.85,-5.3 7.5,0 12.75,5.3 3.2,3.15 4.45,7.15 l 0.05,0.15 0.2,0.85 q 0.6,2.15 0.6,4.5 v 9.85 l -0.1,1.95 -0.1,0.85 q -17.85,4.55 -35.75,0"
       id="path26" />
    <path
       stroke="none"
       fill="#397ede"
       d="m 520.15,223.45 q 17.9,4.55 35.75,0 -0.85,5.7 -5.1,9.95 -5.25,5.3 -12.75,5.3 -7.5,0 -12.85,-5.3 -4.25,-4.25 -5.05,-9.95"
       id="path28" />
  </g>
</svg>
